<?xml version="1.0" encoding="UTF-8" standalone="no"?>
<svg
   xmlns:dc="http://purl.org/dc/elements/1.1/"
   xmlns:cc="http://creativecommons.org/ns#"
   xmlns:rdf="http://www.w3.org/1999/02/22-rdf-syntax-ns#"
   xmlns:svg="http://www.w3.org/2000/svg"
   xmlns="http://www.w3.org/2000/svg"
   height="28.492325"
   width="24.999998"
   xml:space="preserve"
   viewBox="0 0 24.999999 28.492326"
   y="0px"
   x="0px"
   id="Capa_1"
   version="1.1"><metadata
     id="metadata47"><rdf:RDF><cc:Work
         rdf:about=""><dc:format>image/svg+xml</dc:format><dc:type
           rdf:resource="http://purl.org/dc/dcmitype/StillImage" /><dc:title></dc:title></cc:Work></rdf:RDF></metadata><defs
     id="defs45" /><g
     transform="matrix(0.05564929,0,0,0.05564929,-1.7461634,0)"
     style="fill:#1c67b3;fill-opacity:1"
     id="g3"><g
       style="fill:#1c67b3;fill-opacity:1"
       id="g5"><g
         style="fill:#1c67b3;fill-opacity:1"
         id="g7"><path
           style="fill:#1c67b3;fill-opacity:1"
           id="path9"
           d="m 128.695,130.146 c 1.476,0.768 3.054,1.131 4.608,1.131 3.61,0 7.097,-1.961 8.879,-5.385 l 0.184,-0.348 c 2.593,-4.875 0.743,-10.932 -4.133,-13.525 -4.876,-2.594 -10.932,-0.742 -13.525,4.133 l -0.266,0.506 c -2.55,4.899 -0.647,10.938 4.253,13.488 z" /><path
           style="fill:#1c67b3;fill-opacity:1"
           id="path11"
           d="m 467.733,205.863 0,-26.156 c 0,-16.275 -12.82,-29.613 -28.893,-30.443 C 434.436,117.317 418.776,85.416 395.033,60.51 370.015,34.266 338.907,18.383 306.536,15.115 l 0,-5.115 c 0,-5.522 -4.478,-10 -10,-10 l -81.81,0 c -5.522,0 -10,4.478 -10,10 l 0,5.115 c -32.371,3.268 -63.479,19.15 -88.496,45.395 -23.742,24.906 -39.401,56.807 -43.807,88.754 -16.07,0.832 -28.891,14.17 -28.891,30.443 l 0,27.258 c -9.445,8.582 -12.154,17.205 -12.154,24.246 0,17.627 17.597,32.34 40.788,35.506 1.472,16.756 4.118,33.742 6.835,48.99 -3.653,1.49 -6.231,5.072 -6.231,9.26 0,5.459 4.378,9.891 9.813,9.99 0.204,1.066 0.408,2.131 0.606,3.16 1.373,7.158 2.558,13.342 3.35,18.162 7.075,42.969 13.565,65.949 23.147,81.957 10.128,16.922 23.308,25.305 41.549,36.908 5.511,3.506 11.756,7.478 18.603,12.121 l 0.613,0.385 c 27.97,16.148 56.615,24.34 85.14,24.348 0.013,0 0.021,0 0.034,0 28.54,0 57.204,-8.195 85.191,-24.355 l 0.613,-0.383 c 6.847,-4.645 13.092,-8.617 18.603,-12.121 18.241,-11.602 31.42,-19.984 41.547,-36.904 9.582,-16.008 16.071,-38.986 23.145,-81.955 0.791,-4.807 1.973,-10.971 3.342,-18.105 0.201,-1.049 0.408,-2.133 0.616,-3.217 5.434,-0.102 9.81,-4.531 9.81,-9.99 0,-4.188 -2.577,-7.768 -6.229,-9.258 2.721,-15.277 5.372,-32.299 6.841,-49.084 8.946,-1.234 17.405,-4.227 24.463,-8.727 10.837,-6.91 17.053,-16.818 17.053,-27.184 10e-4,-7.211 -2.833,-16.084 -12.887,-24.852 z M 306.536,35.232 c 62.73,7.44 109.512,69.51 113.311,124.678 0.361,5.244 4.721,9.313 9.977,9.313 l 7.426,0 c 5.78,0 10.483,4.703 10.483,10.484 l 0,13.787 c -5.44,-2.496 -11.71,-4.904 -18.974,-7.178 -29.472,-9.219 -70.464,-14.943 -122.223,-17.105 l 0,-133.979 z M 224.727,20 l 61.81,0 0,148.566 c -9.617,-0.225 -19.556,-0.34 -29.835,-0.34 -11.041,0 -21.692,0.133 -31.975,0.391 l 0,-148.617 z m -150.71,149.223 7.424,0 c 5.256,0 9.615,-4.068 9.977,-9.313 C 95.217,104.742 142,42.672 204.728,35.232 l 0,20.078 c -22.813,3.152 -44.675,15.5 -62.417,35.455 -3.669,4.129 -3.298,10.449 0.829,14.119 1.905,1.693 4.277,2.525 6.641,2.525 2.757,0 5.502,-1.133 7.478,-3.355 13.797,-15.518 30.352,-25.385 47.47,-28.486 l 0,93.732 c -51.201,2.248 -91.841,8.016 -121.189,17.234 -7.718,2.424 -14.326,5 -20.004,7.668 l 0,-14.495 -0.002,0 c 0,-5.781 4.703,-10.484 10.483,-10.484 z m 330.974,183.808 c -12.838,77.975 -21.916,83.748 -55.692,105.231 -5.546,3.527 -11.822,7.52 -18.791,12.238 -49.686,28.568 -100.069,28.57 -149.748,0.008 -6.969,-4.719 -13.243,-8.711 -18.789,-12.238 -33.779,-21.486 -42.857,-27.262 -55.697,-105.236 -0.812,-4.936 -1.976,-11.031 -3.324,-18.066 l 17.648,0 c 4.817,30.672 31.422,54.207 63.425,54.207 32.003,0 58.607,-23.535 63.424,-54.207 l 16.375,0 c 4.817,30.672 31.421,54.207 63.422,54.207 32.003,0 58.607,-23.535 63.425,-54.207 l 17.648,0 c -1.349,7.035 -2.514,13.129 -3.326,18.063 z M 228.229,324.992 c -0.014,24.365 -19.839,44.182 -44.206,44.182 -24.376,0 -44.208,-19.83 -44.208,-44.207 0,-24.375 19.832,-44.207 44.208,-44.207 24.367,0 44.192,19.818 44.206,44.182 0,0.008 -0.001,0.018 -0.001,0.025 0,0.01 0.001,0.017 0.001,0.025 z m 143.222,0.014 c -0.022,24.358 -19.844,44.168 -44.207,44.168 -24.375,0 -44.205,-19.83 -44.205,-44.207 0,-24.375 19.83,-44.207 44.205,-44.207 24.363,0 44.186,19.811 44.207,44.168 0,0.014 -0.002,0.027 -0.002,0.039 0,0.013 0.002,0.025 0.002,0.039 z m 40.623,-10.039 -21.405,0 c -4.817,-30.67 -31.422,-54.207 -63.425,-54.207 -32.001,0 -58.605,23.537 -63.422,54.207 l -16.375,0 c -4.817,-30.67 -31.421,-54.207 -63.424,-54.207 -32.003,0 -58.607,23.537 -63.425,54.207 l -21.406,0 c -2.854,-15.771 -5.696,-33.553 -7.172,-50.828 52.602,-18.996 107.605,-28.631 163.613,-28.631 56.003,0 111.007,9.635 163.61,28.631 -1.474,17.275 -4.316,35.054 -7.169,50.828 z m 19.196,-67.723 c -56.367,-21.059 -115.45,-31.736 -175.637,-31.736 -60.27,0 -119.426,10.703 -175.855,31.816 C 63.9,246.74 51.38,238.267 51.38,231.211 c 0,-6.279 9.992,-16.748 38.152,-25.596 36.214,-11.375 94.02,-17.389 167.17,-17.389 122.71,0 175.116,16.502 194.335,29.963 0.501,0.453 1.047,0.855 1.632,1.201 5.753,4.418 7.952,8.436 7.952,11.324 0,7.28 -12.964,16.026 -29.351,16.53 z" /></g></g></g><g
     transform="matrix(0.05564929,0,0,0.05564929,-1.7461634,0)"
     style="fill:#1c67b3;fill-opacity:1"
     id="g13" /><g
     transform="matrix(0.05564929,0,0,0.05564929,-1.7461634,0)"
     style="fill:#1c67b3;fill-opacity:1"
     id="g15" /><g
     transform="matrix(0.05564929,0,0,0.05564929,-1.7461634,0)"
     style="fill:#1c67b3;fill-opacity:1"
     id="g17" /><g
     transform="matrix(0.05564929,0,0,0.05564929,-1.7461634,0)"
     style="fill:#1c67b3;fill-opacity:1"
     id="g19" /><g
     transform="matrix(0.05564929,0,0,0.05564929,-1.7461634,0)"
     style="fill:#1c67b3;fill-opacity:1"
     id="g21" /><g
     transform="matrix(0.05564929,0,0,0.05564929,-1.7461634,0)"
     style="fill:#1c67b3;fill-opacity:1"
     id="g23" /><g
     transform="matrix(0.05564929,0,0,0.05564929,-1.7461634,0)"
     style="fill:#1c67b3;fill-opacity:1"
     id="g25" /><g
     transform="matrix(0.05564929,0,0,0.05564929,-1.7461634,0)"
     style="fill:#1c67b3;fill-opacity:1"
     id="g27" /><g
     transform="matrix(0.05564929,0,0,0.05564929,-1.7461634,0)"
     style="fill:#1c67b3;fill-opacity:1"
     id="g29" /><g
     transform="matrix(0.05564929,0,0,0.05564929,-1.7461634,0)"
     style="fill:#1c67b3;fill-opacity:1"
     id="g31" /><g
     transform="matrix(0.05564929,0,0,0.05564929,-1.7461634,0)"
     style="fill:#1c67b3;fill-opacity:1"
     id="g33" /><g
     transform="matrix(0.05564929,0,0,0.05564929,-1.7461634,0)"
     style="fill:#1c67b3;fill-opacity:1"
     id="g35" /><g
     transform="matrix(0.05564929,0,0,0.05564929,-1.7461634,0)"
     style="fill:#1c67b3;fill-opacity:1"
     id="g37" /><g
     transform="matrix(0.05564929,0,0,0.05564929,-1.7461634,0)"
     style="fill:#1c67b3;fill-opacity:1"
     id="g39" /><g
     transform="matrix(0.05564929,0,0,0.05564929,-1.7461634,0)"
     style="fill:#1c67b3;fill-opacity:1"
     id="g41" /></svg>